<svg xmlns="http://www.w3.org/2000/svg" xmlns:xlink="http://www.w3.org/1999/xlink" width="1366" height="202" viewBox="0 0 1366 202">
  <defs>
    <linearGradient id="linear-gradient" x1="0.5" x2="0.5" y2="1" gradientUnits="objectBoundingBox">
      <stop offset="0" stop-color="#e43030" stop-opacity="0.961"/>
      <stop offset="0.929" stop-color="#700a0a" stop-opacity="0.631"/>
      <stop offset="1" stop-color="#721818" stop-opacity="0.631"/>
    </linearGradient>
  </defs>
  <g id="Path_1" data-name="Path 1" fill="url(#linear-gradient)">
    <path d="M 1365.5 201.5 L 0.5 201.5 L 0.5 9.422404289245605 C 1.347961902618408 10.38624382019043 2.844765424728394 11.90946388244629 5.239333152770996 13.8100004196167 C 7.653166770935059 15.72599983215332 10.48999977111816 17.63433265686035 13.67099952697754 19.48250007629395 C 17.63983345031738 21.78816604614258 22.16049957275391 24.00699996948242 27.10733413696289 26.07699966430664 C 39.68116760253906 31.33833312988281 55.05733489990234 35.68516540527344 72.80867004394531 38.99666595458984 C 94.98016357421875 43.13266754150391 120.9461669921875 45.65700149536133 149.9855041503906 46.49983215332031 C 153.6300048828125 46.60549926757812 157.7389984130859 46.6591682434082 162.1985015869141 46.6591682434082 C 195.3053283691406 46.6591682434082 246.1036682128906 43.76950073242188 299.8844909667969 40.70999908447266 C 360.6124877929688 37.25533294677734 423.4081726074219 33.68316650390625 469.5809936523438 33.68316650390625 C 482.1461791992188 33.68316650390625 493.0433349609375 33.95766830444336 501.9696655273438 34.49900054931641 C 569.380859375 38.58766555786133 612.31982421875 46.11366653442383 653.8451538085938 53.39166641235352 C 673.8604736328125 56.89983367919922 692.7658081054688 60.21333312988281 714.3071899414062 63.18883514404297 C 738.7223510742188 66.56133270263672 762.1288452148438 68.88416290283203 787.9688110351562 70.49900054931641 C 825.2963256835938 72.57283020019531 861.0221557617188 73.58083343505859 897.1913452148438 73.58083343505859 C 933.394775390625 73.58083343505859 968.989990234375 72.57315063476562 1006.013122558594 70.5 C 1081.15087890625 70.49900054931641 1155.1552734375 62.35085296630859 1225.969482421875 46.28183364868164 C 1246.258178710938 41.67800140380859 1266.255004882812 36.40433502197266 1285.404541015625 30.6071662902832 C 1300.725219726562 25.96916580200195 1315.541137695312 20.98766708374023 1329.440795898438 15.8008337020874 C 1349.9765625 8.137942314147949 1362.4658203125 2.264753103256226 1365.5 0.8003368377685547 L 1365.5 201.5 Z" stroke="none"/>
    <path d="M 1365 1.594268798828125 C 1361.002075195312 3.496917724609375 1348.8203125 9.103012084960938 1329.61572265625 16.26933288574219 C 1315.7060546875 21.45967102050781 1300.880004882812 26.44467163085938 1285.54931640625 31.08566284179688 C 1266.388549804688 36.88616943359375 1246.380126953125 42.16282653808594 1226.079956054688 46.76933288574219 C 1155.234008789062 62.845703125 1081.199462890625 70.99800109863281 1006.029052734375 71 C 968.9994506835938 73.07296752929688 933.3978271484375 74.08083343505859 897.1913452148438 74.08083343505859 C 861.0145263671875 74.08083343505859 825.2794799804688 73.07249450683594 787.9445190429688 70.99850463867188 L 787.9376831054688 70.99800109863281 C 762.0848388671875 69.38233947753906 738.66650390625 67.05833435058594 714.2388305664062 63.68417358398438 C 692.6884765625 60.70733642578125 673.77880859375 57.39300537109375 653.7588500976562 53.88417053222656 C 612.247314453125 46.60850524902344 569.3223266601562 39.08500671386719 501.9395141601562 34.9981689453125 C 493.02099609375 34.45716857910156 482.1341552734375 34.18299865722656 469.5809936523438 34.18316650390625 C 423.4251708984375 34.183837890625 360.6411743164062 37.75517272949219 299.9241943359375 41.20899963378906 C 246.13134765625 44.26899719238281 195.32177734375 47.15916442871094 162.198486328125 47.15916442871094 C 157.7344970703125 47.15916442871094 153.6204833984375 47.10549926757812 149.970947265625 46.99949645996094 C 120.9058837890625 46.156005859375 94.913818359375 43.62882995605469 72.717041015625 39.4881591796875 C 54.9307861328125 36.17033386230469 39.5206298828125 31.81333923339844 26.914306640625 26.53816223144531 C 21.9476318359375 24.4598388671875 17.4073486328125 22.23133850097656 13.4197998046875 19.91484069824219 C 10.218017578125 18.05467224121094 7.3612060546875 16.13250732421875 4.928466796875 14.20166015625 C 3.1826171875 12.81588745117188 1.9033203125 11.62234497070312 1 10.69400024414062 L 1 201 L 1365 201 L 1365 1.594268798828125 M 1366 0 L 1366 202 L 0 202 L 0 8 C 0 8 22.801025390625 42.30850219726562 150 46 C 153.727783203125 46.10818481445312 157.810791015625 46.1591796875 162.1986083984375 46.1591796875 C 232.2734375 46.1591796875 382.064697265625 33.1844482421875 469.5809936523438 33.18315124511719 C 481.7147827148438 33.1829833984375 492.6386108398438 33.43220520019531 502 34 C 632.7566528320312 41.9306640625 670.8558349609375 62.67916870117188 788 70 C 824.4658203125 72.02587890625 860.6197509765625 73.08076477050781 897.1912841796875 73.08076477050781 C 932.8284912109375 73.08076477050781 968.86181640625 72.07974243164062 1006 70 C 1092.900024414062 70 1167.317993164062 59.07817077636719 1225.858642578125 45.79417419433594 C 1314.756469726562 25.62167358398438 1366 0 1366 0 Z" stroke="none" fill="#707070"/>
  </g>
</svg>
